<svg width="1600" height="300" viewBox="0 0 1600 300" fill="none" xmlns="http://www.w3.org/2000/svg">
<g clip-path="url(#clip0)">
<rect width="1600" height="300"/>
<path fill-rule="evenodd" clip-rule="evenodd" d="M526.632 84.2015H491.887H451.968C449.11 84.2015 446.793 81.8847 446.793 79.0267C446.793 76.1688 449.11 73.852 451.968 73.852H469.758C465.574 68.8479 463.056 62.4034 463.056 55.3708C463.056 39.448 475.964 26.54 491.887 26.54C506.953 26.54 519.319 38.0956 520.607 52.8269C522.47 52.0834 524.503 51.6745 526.632 51.6745C535.614 51.6745 542.895 58.9559 542.895 67.938C542.895 70.0244 542.502 72.0191 541.787 73.852H585.032C587.89 73.852 590.207 76.1688 590.207 79.0267C590.207 81.8847 587.89 84.2015 585.032 84.2015H526.632Z" fill="white"/>
<path opacity="0.41" d="M474.884 58.3277C479.882 77.6517 495.453 79.4487 495.453 79.4487C483.599 82.5146 471.254 74.4257 467.88 61.3817C464.507 48.3378 471.382 35.2782 483.237 32.2124C483.237 32.2124 470.257 40.4351 474.884 58.3277Z" fill="#C9EFFF"/>
<path opacity="0.41" d="M516.436 69.0554C518.985 78.9131 526.929 79.8299 526.929 79.8299C520.881 81.3938 514.584 77.2675 512.863 70.6133C511.142 63.9592 514.649 57.2971 520.697 55.7331C520.697 55.7331 514.075 59.9278 516.436 69.0554Z" fill="#C9EFFF"/>
<path fill-rule="evenodd" clip-rule="evenodd" d="M138.101 123.047C135.492 119.926 133.921 115.907 133.921 111.521C133.921 101.59 141.972 93.54 151.902 93.54C161.298 93.54 169.011 100.747 169.814 109.934C170.976 109.471 172.244 109.216 173.572 109.216C179.173 109.216 183.715 113.757 183.715 119.359C183.715 120.66 183.47 121.904 183.023 123.047H209.995C211.777 123.047 213.222 124.492 213.222 126.275C213.222 128.057 211.777 129.502 209.995 129.502H127.005C125.223 129.502 123.778 128.057 123.778 126.275C123.778 124.492 125.223 123.047 127.005 123.047H138.101Z" fill="white"/>
<path opacity="0.41" d="M141.298 113.365C144.415 125.417 154.126 126.538 154.126 126.538C146.733 128.45 139.034 123.405 136.93 115.27C134.826 107.135 139.114 98.9899 146.507 97.0778C146.507 97.0778 138.412 102.206 141.298 113.365Z" fill="#C9EFFF"/>
<path opacity="0.41" d="M167.213 120.056C168.803 126.204 173.757 126.776 173.757 126.776C169.985 127.751 166.057 125.177 164.984 121.027C163.911 116.877 166.098 112.722 169.87 111.747C169.87 111.747 165.74 114.363 167.213 120.056Z" fill="#C9EFFF"/>
<path fill-rule="evenodd" clip-rule="evenodd" d="M696.411 180.686H682.741H667.036C665.912 180.686 665 179.774 665 178.65C665 177.526 665.912 176.614 667.036 176.614H674.035C672.389 174.645 671.399 172.11 671.399 169.343C671.399 163.078 676.477 158 682.741 158C688.669 158 693.534 162.546 694.041 168.342C694.774 168.05 695.574 167.889 696.411 167.889C699.945 167.889 702.81 170.753 702.81 174.287C702.81 175.108 702.655 175.893 702.374 176.614H719.388C720.512 176.614 721.424 177.526 721.424 178.65C721.424 179.774 720.512 180.686 719.388 180.686H696.411Z" fill="white"/>
<path opacity="0.41" d="M676.052 170.506C678.018 178.109 684.145 178.816 684.145 178.816C679.481 180.022 674.624 176.84 673.297 171.708C671.969 166.576 674.674 161.438 679.338 160.232C679.338 160.232 674.232 163.467 676.052 170.506Z" fill="#C9EFFF"/>
<path opacity="0.41" d="M692.4 174.727C693.403 178.605 696.528 178.966 696.528 178.966C694.149 179.581 691.671 177.958 690.994 175.34C690.317 172.722 691.697 170.101 694.076 169.485C694.076 169.485 691.471 171.136 692.4 174.727Z" fill="#C9EFFF"/>
<path fill-rule="evenodd" clip-rule="evenodd" d="M1326.63 84.2015H1291.89H1251.97C1249.11 84.2015 1246.79 81.8847 1246.79 79.0267C1246.79 76.1688 1249.11 73.852 1251.97 73.852H1269.76C1265.57 68.8479 1263.06 62.4034 1263.06 55.3708C1263.06 39.448 1275.96 26.54 1291.89 26.54C1306.95 26.54 1319.32 38.0956 1320.61 52.8269C1322.47 52.0834 1324.5 51.6745 1326.63 51.6745C1335.61 51.6745 1342.9 58.9559 1342.9 67.938C1342.9 70.0244 1342.5 72.0191 1341.79 73.852H1385.03C1387.89 73.852 1390.21 76.1688 1390.21 79.0267C1390.21 81.8847 1387.89 84.2015 1385.03 84.2015H1326.63Z" fill="white"/>
<path opacity="0.41" d="M1274.88 58.3277C1279.88 77.6517 1295.45 79.4487 1295.45 79.4487C1283.6 82.5146 1271.25 74.4257 1267.88 61.3817C1264.51 48.3378 1271.38 35.2782 1283.24 32.2124C1283.24 32.2124 1270.26 40.4351 1274.88 58.3277Z" fill="#C9EFFF"/>
<path opacity="0.41" d="M1316.44 69.0554C1318.99 78.9131 1326.93 79.8299 1326.93 79.8299C1320.88 81.3938 1314.58 77.2675 1312.86 70.6133C1311.14 63.9592 1314.65 57.2971 1320.7 55.7331C1320.7 55.7331 1314.08 59.9278 1316.44 69.0554Z" fill="#C9EFFF"/>
<path fill-rule="evenodd" clip-rule="evenodd" d="M938.101 123.047C935.492 119.926 933.921 115.907 933.921 111.521C933.921 101.59 941.972 93.54 951.902 93.54C961.298 93.54 969.011 100.747 969.814 109.934C970.976 109.471 972.244 109.216 973.572 109.216C979.174 109.216 983.715 113.757 983.715 119.359C983.715 120.66 983.47 121.904 983.023 123.047H1009.99C1011.78 123.047 1013.22 124.492 1013.22 126.275C1013.22 128.057 1011.78 129.502 1009.99 129.502H927.005C925.223 129.502 923.778 128.057 923.778 126.275C923.778 124.492 925.223 123.047 927.005 123.047H938.101Z" fill="white"/>
<path opacity="0.41" d="M941.298 113.365C944.415 125.417 954.126 126.538 954.126 126.538C946.733 128.45 939.034 123.405 936.93 115.27C934.826 107.135 939.114 98.9899 946.508 97.0778C946.508 97.0778 938.412 102.206 941.298 113.365Z" fill="#C9EFFF"/>
<path opacity="0.41" d="M967.213 120.056C968.803 126.204 973.757 126.776 973.757 126.776C969.985 127.751 966.058 125.177 964.984 121.027C963.911 116.877 966.099 112.722 969.87 111.747C969.87 111.747 965.74 114.363 967.213 120.056Z" fill="#C9EFFF"/>
<path fill-rule="evenodd" clip-rule="evenodd" d="M1496.41 180.686H1482.74H1467.04C1465.91 180.686 1465 179.774 1465 178.65C1465 177.526 1465.91 176.614 1467.04 176.614H1474.04C1472.39 174.645 1471.4 172.11 1471.4 169.343C1471.4 163.078 1476.48 158 1482.74 158C1488.67 158 1493.53 162.546 1494.04 168.342C1494.77 168.05 1495.57 167.889 1496.41 167.889C1499.95 167.889 1502.81 170.753 1502.81 174.287C1502.81 175.108 1502.66 175.893 1502.37 176.614H1519.39C1520.51 176.614 1521.42 177.526 1521.42 178.65C1521.42 179.774 1520.51 180.686 1519.39 180.686H1496.41Z" fill="white"/>
<path opacity="0.41" d="M1476.05 170.506C1478.02 178.109 1484.14 178.816 1484.14 178.816C1479.48 180.022 1474.62 176.84 1473.3 171.708C1471.97 166.576 1474.67 161.438 1479.34 160.232C1479.34 160.232 1474.23 163.467 1476.05 170.506Z" fill="#C9EFFF"/>
<path opacity="0.41" d="M1492.4 174.727C1493.4 178.605 1496.53 178.966 1496.53 178.966C1494.15 179.581 1491.67 177.958 1490.99 175.34C1490.32 172.722 1491.7 170.101 1494.08 169.485C1494.08 169.485 1491.47 171.136 1492.4 174.727Z" fill="#C9EFFF"/>
</g>
<defs>
<clipPath id="clip0">
<rect width="1600" height="300" fill="white"/>
</clipPath>
</defs>
</svg>
