<?xml version="1.0" encoding="UTF-8"?>
<svg width="324px" height="324px" viewBox="0 0 324 324" version="1.1" xmlns="http://www.w3.org/2000/svg" xmlns:xlink="http://www.w3.org/1999/xlink">
    <!-- Generator: Sketch 51.1 (57501) - http://www.bohemiancoding.com/sketch -->
    <title>TC</title>
    <desc>Created with Sketch.</desc>
    <defs>
        <path d="M290.260297,257 L139.777344,257 L139.777344,106 L312.360869,106 C318.598151,123.161178 322,141.683317 322,161 C322,196.975602 310.200434,230.195267 290.260297,257 Z M272.647029,277 C243.70169,304.865787 204.3518,322 161,322 C139.707516,322 119.380428,317.866646 100.777344,310.358546 L100.777344,68 L292.43898,68 C296.503323,73.7337995 300.201906,79.7451317 303.500733,86 L119,86 L119,106 L119.777344,106 L119.777344,257.375488 L120,257.375488 L120,277 L272.647029,277 Z M270.531835,43 L100.777344,43 L100.777344,42.3754883 L80.7773438,42.3754883 L80.7773438,43 L51.4681651,43 C80.2012351,16.3166279 118.695141,-9.41469125e-13 161,-9.41469125e-13 C203.304859,-9.41469125e-13 241.798765,16.3166279 270.531835,43 Z M29.5610196,68 L80.7773438,68 L80.7773437,300.621133 C32.5014089,272.823134 0,220.707122 0,161 C0,126.354842 10.9429647,94.2655508 29.5610196,68 Z" id="path-1"></path>
    </defs>
    <g id="Page-1" stroke="none" stroke-width="1" fill="none" fill-rule="evenodd">
        <g id="Artboard" transform="translate(-327.000000, -363.000000)">
            <g id="TC" transform="translate(489.000000, 525.000000) rotate(-22.000000) translate(-489.000000, -525.000000) translate(328.000000, 364.000000)">
                <g id="Rectangle-2">
                    <g id="Mask">
                        <mask id="mask-2" fill="white">
                            <use xlink:href="#path-1"></use>
                        </mask>
                        <use id="Combined-Shape" fill="#FFF082" xlink:href="#path-1"></use>
                    </g>
                </g>
            </g>
        </g>
    </g>
</svg>